<svg width="1024" height="1024" viewBox="0 0 1024 1024" fill="none" xmlns="http://www.w3.org/2000/svg">
<path d="M38 394.4C38 291.35 38 239.826 58.0548 200.466C75.6955 165.844 103.844 137.696 138.466 120.055C177.826 100 229.35 100 332.4 100H567.6C670.65 100 722.174 100 761.534 120.055C796.156 137.696 824.304 165.844 841.945 200.466C862 239.826 862 291.35 862 394.4V629.6C862 732.65 862 784.174 841.945 823.534C824.304 858.156 796.156 886.304 761.534 903.945C722.174 924 670.65 924 567.6 924H332.4C229.35 924 177.826 924 138.466 903.945C103.844 886.304 75.6955 858.156 58.0548 823.534C38 784.174 38 732.65 38 629.6V394.4Z" fill="#232323"/>
<path d="M38 394.4C38 291.35 38 239.826 58.0548 200.466C75.6955 165.844 103.844 137.696 138.466 120.055C177.826 100 229.35 100 332.4 100H567.6C670.65 100 722.174 100 761.534 120.055C796.156 137.696 824.304 165.844 841.945 200.466C862 239.826 862 291.35 862 394.4V629.6C862 732.65 862 784.174 841.945 823.534C824.304 858.156 796.156 886.304 761.534 903.945C722.174 924 670.65 924 567.6 924H332.4C229.35 924 177.826 924 138.466 903.945C103.844 886.304 75.6955 858.156 58.0548 823.534C38 784.174 38 732.65 38 629.6V394.4Z" fill="url(#paint0_linear_2028_1293)" fill-opacity="0.32" style="mix-blend-mode:soft-light"/>
<g filter="url(#filter0_d_2028_1293)">
<path d="M449.349 261.045C449.349 261.045 596.748 254.41 674.868 402.546H436.815C436.815 402.546 391.856 401.067 353.531 455.613C342.479 478.462 330.689 502.046 343.953 548.469C324.792 516.048 242.246 372.331 242.246 372.331C242.246 372.331 300.476 266.938 449.349 261.045Z" fill="#C6352E"/>
<path d="M667.196 637.156C667.196 637.156 599.224 768.109 431.87 761.673C452.515 725.937 550.925 555.529 550.925 555.529C550.925 555.529 574.684 517.337 546.629 456.874C532.368 435.873 517.844 413.867 471.002 402.134C508.674 401.76 674.396 402.158 674.396 402.158C674.396 402.158 736.542 505.288 667.196 637.156Z" fill="#F4D911"/>
<path d="M232.552 638.151C232.552 638.151 153.133 513.792 242.395 372.089C263.022 407.838 361.379 578.277 361.379 578.277C361.379 578.277 382.568 617.947 448.963 623.888C474.273 622.042 500.598 620.467 534.181 585.772C515.665 618.577 432.449 761.903 432.449 761.903C432.449 761.903 312.067 764.147 232.552 638.151Z" fill="#81B354"/>
<path d="M431.87 762.887L465.355 623.157C465.355 623.157 502.174 620.284 533.024 586.425C513.872 620.115 431.87 762.887 431.87 762.887V762.887Z" fill="#7BAA50"/>
<path d="M337.203 513.506C337.203 451.909 387.132 401.974 448.735 401.974C510.332 401.974 560.266 451.908 560.266 513.506C560.266 575.107 510.335 625.043 448.735 625.043C387.132 625.043 337.203 575.108 337.203 513.506V513.506Z" fill="#1E2235"/>
<path d="M355.869 513.508C355.869 462.222 397.444 420.646 448.735 420.646C500.016 420.646 541.595 462.222 541.595 513.508C541.595 564.794 500.016 606.374 448.735 606.374C397.444 606.375 355.869 564.792 355.869 513.508V513.508Z" fill="url(#paint1_linear_2028_1293)"/>
<path d="M674.397 402.158L536.515 442.584C536.515 442.584 515.723 412.071 471.001 402.134C509.751 402.002 674.397 402.158 674.397 402.158Z" fill="#E7CE12"/>
<path d="M341.271 543.456C321.894 509.899 242.25 372.329 242.25 372.329L344.391 473.369C344.391 473.369 333.894 494.961 337.874 525.8L341.271 543.456V543.456Z" fill="#BC332C"/>
</g>
<defs>
<filter id="filter0_d_2028_1293" x="196" y="261" width="508" height="509.887" filterUnits="userSpaceOnUse" color-interpolation-filters="sRGB">
<feFlood flood-opacity="0" result="BackgroundImageFix"/>
<feColorMatrix in="SourceAlpha" type="matrix" values="0 0 0 0 0 0 0 0 0 0 0 0 0 0 0 0 0 0 127 0" result="hardAlpha"/>
<feOffset dy="4"/>
<feGaussianBlur stdDeviation="2"/>
<feComposite in2="hardAlpha" operator="out"/>
<feColorMatrix type="matrix" values="0 0 0 0 0 0 0 0 0 0 0 0 0 0 0 0 0 0 0.25 0"/>
<feBlend mode="normal" in2="BackgroundImageFix" result="effect1_dropShadow_2028_1293"/>
<feBlend mode="normal" in="SourceGraphic" in2="effect1_dropShadow_2028_1293" result="shape"/>
</filter>
<linearGradient id="paint0_linear_2028_1293" x1="450" y1="-869.785" x2="450" y2="924" gradientUnits="userSpaceOnUse">
<stop stop-color="white" stop-opacity="0"/>
<stop offset="0.950495" stop-color="#1B1A1A"/>
</linearGradient>
<linearGradient id="paint1_linear_2028_1293" x1="448.732" y1="421.96" x2="448.732" y2="600.817" gradientUnits="userSpaceOnUse">
<stop stop-color="#A2C0E6"/>
<stop offset="1" stop-color="#406CB1"/>
</linearGradient>
</defs>
</svg>
