<svg width="1024" height="1024" viewBox="0 0 1024 1024" fill="none" xmlns="http://www.w3.org/2000/svg">
<path d="M100 394.4C100 291.35 100 239.826 120.055 200.466C137.696 165.844 165.844 137.696 200.466 120.055C239.826 100 291.35 100 394.4 100H629.6C732.65 100 784.174 100 823.534 120.055C858.156 137.696 886.304 165.844 903.945 200.466C924 239.826 924 291.35 924 394.4V629.6C924 732.65 924 784.174 903.945 823.534C886.304 858.156 858.156 886.304 823.534 903.945C784.174 924 732.65 924 629.6 924H394.4C291.35 924 239.826 924 200.466 903.945C165.844 886.304 137.696 858.156 120.055 823.534C100 784.174 100 732.65 100 629.6V394.4Z" fill="#232323"/>
<path d="M100 394.4C100 291.35 100 239.826 120.055 200.466C137.696 165.844 165.844 137.696 200.466 120.055C239.826 100 291.35 100 394.4 100H629.6C732.65 100 784.174 100 823.534 120.055C858.156 137.696 886.304 165.844 903.945 200.466C924 239.826 924 291.35 924 394.4V629.6C924 732.65 924 784.174 903.945 823.534C886.304 858.156 858.156 886.304 823.534 903.945C784.174 924 732.65 924 629.6 924H394.4C291.35 924 239.826 924 200.466 903.945C165.844 886.304 137.696 858.156 120.055 823.534C100 784.174 100 732.65 100 629.6V394.4Z" fill="url(#paint0_linear_2021_9678)" fill-opacity="0.32" style="mix-blend-mode:soft-light"/>
<g filter="url(#filter0_d_2021_9678)">
<path fill-rule="evenodd" clip-rule="evenodd" d="M651.15 283.04C675.977 283.04 698.455 293.156 714.726 309.505C730.997 325.854 741.064 348.446 741.064 373.394V650.606C741.064 675.557 731 698.146 714.729 714.498C706.388 722.9 696.478 729.564 685.567 734.105C674.656 738.647 662.96 740.976 651.15 740.96H372.849C348.022 740.96 325.544 730.844 309.273 714.495C293.002 698.146 282.936 675.554 282.936 650.606V373.394C282.936 348.443 293 325.854 309.271 309.503C317.611 301.1 327.521 294.436 338.432 289.895C349.343 285.353 361.04 283.024 372.849 283.04H651.15Z" fill="#EC5990" stroke="white" stroke-width="17"/>
<path fill-rule="evenodd" clip-rule="evenodd" d="M590.535 389.733H539.136C535.367 377.936 524.404 369.928 512.02 369.928C499.636 369.928 488.673 377.936 484.904 389.733H433.468C413.217 389.733 396.801 406.149 396.801 426.399V617.431C396.801 637.681 413.217 654.097 433.468 654.097H590.535C610.786 654.097 627.202 637.681 627.202 617.431V426.399C627.202 406.149 610.786 389.733 590.535 389.733ZM487.468 396.399C488.242 396.418 488.998 396.165 489.606 395.685C490.215 395.204 490.637 394.525 490.801 393.765C492.983 383.75 501.85 376.606 512.101 376.606C522.353 376.606 531.22 383.748 533.402 393.765C533.565 394.525 533.988 395.204 534.596 395.685C535.205 396.165 535.961 396.418 536.734 396.399H554.668V418.233C554.668 423.755 550.19 428.233 544.668 428.233H479.5C473.978 428.233 469.5 423.755 469.5 418.233V396.399H487.468ZM620.535 617.431C620.535 634 607.104 647.431 590.535 647.431H433.468C416.899 647.431 403.468 634 403.468 617.431V426.399C403.468 409.829 416.899 396.399 433.468 396.399H462.835V418.233C462.835 427.438 470.298 434.899 479.503 434.899H544.503C553.707 434.899 561.17 427.436 561.17 418.233V396.399H590.537C607.106 396.399 620.537 409.829 620.537 426.399L620.535 617.431ZM584 498.666H525.333C524.896 498.665 524.464 498.75 524.06 498.917C523.656 499.084 523.289 499.33 522.979 499.639C522.67 499.949 522.424 500.317 522.256 500.722C522.088 501.127 522.001 501.561 522 502C522.001 502.439 522.088 502.873 522.256 503.278C522.424 503.683 522.67 504.051 522.979 504.361C523.289 504.67 523.656 504.916 524.06 505.083C524.464 505.25 524.896 505.335 525.333 505.334H584C584.437 505.335 584.87 505.25 585.273 505.083C585.677 504.916 586.044 504.67 586.354 504.361C586.663 504.051 586.909 503.683 587.077 503.278C587.245 502.873 587.332 502.439 587.333 502C587.332 501.561 587.245 501.127 587.077 500.722C586.909 500.317 586.663 499.949 586.354 499.639C586.044 499.33 585.677 499.084 585.273 498.917C584.87 498.75 584.437 498.665 584 498.666ZM497.335 498.666H438.668C438.231 498.665 437.799 498.75 437.395 498.917C436.991 499.084 436.624 499.33 436.314 499.639C436.005 499.949 435.759 500.317 435.591 500.722C435.423 501.127 435.336 501.561 435.335 502C435.336 502.439 435.423 502.873 435.591 503.278C435.759 503.683 436.005 504.051 436.314 504.361C436.624 504.67 436.991 504.916 437.395 505.083C437.799 505.25 438.231 505.335 438.668 505.334H497.335C497.772 505.335 498.205 505.25 498.608 505.083C499.012 504.916 499.379 504.67 499.689 504.361C499.998 504.051 500.244 503.683 500.412 503.278C500.58 502.873 500.667 502.439 500.668 502C500.667 501.561 500.58 501.127 500.412 500.722C500.244 500.317 499.998 499.949 499.689 499.639C499.379 499.33 499.012 499.084 498.608 498.917C498.205 498.75 497.772 498.665 497.335 498.666ZM584.168 579.332H525.335C524.899 579.331 524.466 579.416 524.062 579.583C523.658 579.75 523.291 579.996 522.982 580.305C522.672 580.615 522.427 580.983 522.259 581.388C522.091 581.793 522.004 582.227 522.003 582.666C522.004 583.105 522.091 583.539 522.259 583.944C522.427 584.349 522.672 584.717 522.982 585.027C523.291 585.336 523.658 585.581 524.062 585.749C524.466 585.916 524.899 586.001 525.335 586H584.168C584.604 586.001 585.037 585.916 585.441 585.749C585.845 585.581 586.212 585.336 586.521 585.027C586.831 584.717 587.076 584.349 587.244 583.944C587.412 583.539 587.499 583.105 587.5 582.666C587.499 582.227 587.412 581.793 587.244 581.388C587.076 580.983 586.831 580.615 586.521 580.305C586.212 579.996 585.845 579.75 585.441 579.583C585.037 579.416 584.604 579.331 584.168 579.332ZM497.5 579.332H438.668C438.231 579.331 437.799 579.416 437.395 579.583C436.991 579.75 436.624 579.996 436.314 580.305C436.005 580.615 435.759 580.983 435.591 581.388C435.423 581.793 435.336 582.227 435.335 582.666C435.336 583.105 435.423 583.539 435.591 583.944C435.759 584.349 436.005 584.717 436.314 585.027C436.624 585.336 436.991 585.581 437.395 585.749C437.799 585.916 438.231 586.001 438.668 586H497.5C497.937 586.001 498.37 585.916 498.773 585.749C499.177 585.581 499.544 585.336 499.854 585.027C500.163 584.717 500.409 584.349 500.577 583.944C500.745 583.539 500.832 583.105 500.833 582.666C500.832 582.227 500.745 581.793 500.577 581.388C500.409 580.983 500.163 580.615 499.854 580.305C499.544 579.996 499.177 579.75 498.773 579.583C498.37 579.416 497.937 579.331 497.5 579.332Z" fill="white"/>
</g>
<defs>
<filter id="filter0_d_2021_9678" x="258" y="262" width="508" height="508" filterUnits="userSpaceOnUse" color-interpolation-filters="sRGB">
<feFlood flood-opacity="0" result="BackgroundImageFix"/>
<feColorMatrix in="SourceAlpha" type="matrix" values="0 0 0 0 0 0 0 0 0 0 0 0 0 0 0 0 0 0 127 0" result="hardAlpha"/>
<feOffset dy="4"/>
<feGaussianBlur stdDeviation="2"/>
<feComposite in2="hardAlpha" operator="out"/>
<feColorMatrix type="matrix" values="0 0 0 0 0 0 0 0 0 0 0 0 0 0 0 0 0 0 0.25 0"/>
<feBlend mode="normal" in2="BackgroundImageFix" result="effect1_dropShadow_2021_9678"/>
<feBlend mode="normal" in="SourceGraphic" in2="effect1_dropShadow_2021_9678" result="shape"/>
</filter>
<linearGradient id="paint0_linear_2021_9678" x1="512" y1="-869.785" x2="512" y2="924" gradientUnits="userSpaceOnUse">
<stop stop-color="white" stop-opacity="0"/>
<stop offset="0.950495" stop-color="#1B1A1A"/>
</linearGradient>
</defs>
</svg>
