<svg width="1024" height="1024" viewBox="0 0 1024 1024" fill="none" xmlns="http://www.w3.org/2000/svg">
<path d="M100 394.4C100 291.35 100 239.826 120.055 200.466C137.696 165.844 165.844 137.696 200.466 120.055C239.826 100 291.35 100 394.4 100H629.6C732.65 100 784.174 100 823.534 120.055C858.156 137.696 886.304 165.844 903.945 200.466C924 239.826 924 291.35 924 394.4V629.6C924 732.65 924 784.174 903.945 823.534C886.304 858.156 858.156 886.304 823.534 903.945C784.174 924 732.65 924 629.6 924H394.4C291.35 924 239.826 924 200.466 903.945C165.844 886.304 137.696 858.156 120.055 823.534C100 784.174 100 732.65 100 629.6V394.4Z" fill="#232323"/>
<path d="M100 394.4C100 291.35 100 239.826 120.055 200.466C137.696 165.844 165.844 137.696 200.466 120.055C239.826 100 291.35 100 394.4 100H629.6C732.65 100 784.174 100 823.534 120.055C858.156 137.696 886.304 165.844 903.945 200.466C924 239.826 924 291.35 924 394.4V629.6C924 732.65 924 784.174 903.945 823.534C886.304 858.156 858.156 886.304 823.534 903.945C784.174 924 732.65 924 629.6 924H394.4C291.35 924 239.826 924 200.466 903.945C165.844 886.304 137.696 858.156 120.055 823.534C100 784.174 100 732.65 100 629.6V394.4Z" fill="url(#paint0_linear_2021_9458)" fill-opacity="0.32" style="mix-blend-mode:soft-light"/>
<g filter="url(#filter0_d_2021_9458)">
<path d="M608.448 606.038C626.898 604.13 640.896 588.247 640.259 569.184C639.625 550.123 623.717 534.874 604.629 534.874H603.358C583.63 535.51 568.361 552.028 568.997 571.725C569.635 581.256 573.451 589.516 579.179 595.234C557.545 637.806 524.459 668.94 474.83 694.99C441.108 712.782 406.114 719.135 371.12 714.69C342.487 710.877 320.217 698.169 306.217 677.2C285.858 646.066 283.95 612.39 301.129 578.715C313.219 554.57 332.304 536.779 344.395 527.883C341.851 519.623 338.032 505.646 336.123 495.48C243.863 562.197 253.408 652.42 281.404 694.99C302.4 726.762 345.031 746.458 392.116 746.458C404.839 746.458 417.565 745.187 430.291 742.011C511.735 726.126 573.454 677.836 608.448 606.038ZM720.432 527.249C672.074 470.699 600.812 439.567 519.369 439.567H509.189C503.463 428.129 491.372 420.504 478.012 420.504H476.738C457.015 421.14 441.746 437.658 442.38 457.356C443.018 476.417 458.924 491.668 478.012 491.668H479.284C493.282 491.031 505.371 482.137 510.46 470.064H521.915C570.272 470.064 616.082 484.042 657.441 511.364C689.253 532.332 712.16 559.655 724.885 592.694C735.701 619.379 735.065 645.431 723.611 667.671C705.797 701.345 675.893 719.772 636.443 719.772C610.992 719.772 586.814 712.146 574.087 706.428C567.09 712.782 554.363 722.947 545.454 729.304C572.816 742.009 600.812 749 627.536 749C688.617 749 733.793 715.324 750.972 681.649C769.424 644.795 768.151 581.256 720.432 527.249ZM397.205 616.837C397.842 635.9 413.748 651.147 432.836 651.147H434.11C453.834 650.513 469.104 633.991 468.467 614.295C467.833 595.233 451.924 579.985 432.836 579.985H431.564C430.292 579.985 428.381 579.985 427.111 580.619C401.024 537.413 390.208 490.395 394.025 439.563C396.569 401.44 409.296 368.399 431.564 341.078C450.016 317.569 485.646 306.131 509.826 305.497C577.269 304.226 605.9 388.097 607.81 421.773C616.082 423.678 630.08 428.127 639.625 431.305C631.988 328.373 568.361 275 507.282 275C450.016 275 397.205 316.301 376.206 377.298C346.94 458.627 366.027 536.779 401.659 598.412C398.478 602.859 396.569 609.846 397.205 616.837Z" fill="#8B5CF6"/>
</g>
<defs>
<filter id="filter0_d_2021_9458" x="258" y="275" width="508" height="482" filterUnits="userSpaceOnUse" color-interpolation-filters="sRGB">
<feFlood flood-opacity="0" result="BackgroundImageFix"/>
<feColorMatrix in="SourceAlpha" type="matrix" values="0 0 0 0 0 0 0 0 0 0 0 0 0 0 0 0 0 0 127 0" result="hardAlpha"/>
<feOffset dy="4"/>
<feGaussianBlur stdDeviation="2"/>
<feComposite in2="hardAlpha" operator="out"/>
<feColorMatrix type="matrix" values="0 0 0 0 0 0 0 0 0 0 0 0 0 0 0 0 0 0 0.25 0"/>
<feBlend mode="normal" in2="BackgroundImageFix" result="effect1_dropShadow_2021_9458"/>
<feBlend mode="normal" in="SourceGraphic" in2="effect1_dropShadow_2021_9458" result="shape"/>
</filter>
<linearGradient id="paint0_linear_2021_9458" x1="512" y1="-869.785" x2="512" y2="924" gradientUnits="userSpaceOnUse">
<stop stop-color="white" stop-opacity="0"/>
<stop offset="0.950495" stop-color="#1B1A1A"/>
</linearGradient>
</defs>
</svg>
